<svg width="24" height="24" viewBox="0 0 24 24" fill="none" xmlns="http://www.w3.org/2000/svg">
<path d="M17 13.4099L12.71 9.16994C12.617 9.07622 12.5064 9.00182 12.3846 8.95105C12.2627 8.90028 12.132 8.87415 12 8.87415C11.868 8.87415 11.7373 8.90028 11.6154 8.95105C11.4936 9.00182 11.383 9.07622 11.29 9.16994L7.04999 13.4099C6.95627 13.5029 6.88187 13.6135 6.8311 13.7354C6.78033 13.8572 6.7542 13.9879 6.7542 14.1199C6.7542 14.252 6.78033 14.3827 6.8311 14.5045C6.88187 14.6264 6.95627 14.737 7.04999 14.8299C7.23736 15.0162 7.49081 15.1207 7.75499 15.1207C8.01918 15.1207 8.27263 15.0162 8.45999 14.8299L12 11.2899L15.54 14.8299C15.7263 15.0147 15.9777 15.1188 16.24 15.1199C16.3716 15.1207 16.5021 15.0955 16.6239 15.0457C16.7457 14.996 16.8566 14.9226 16.95 14.8299C17.0471 14.7403 17.1254 14.6324 17.1805 14.5123C17.2356 14.3922 17.2664 14.2624 17.2711 14.1304C17.2757 13.9983 17.2541 13.8667 17.2076 13.743C17.1611 13.6194 17.0905 13.5062 17 13.4099Z" fill="black"/>
</svg>
