<svg width="15" height="15" viewBox="0 0 15 15" fill="none" xmlns="http://www.w3.org/2000/svg">
<g clip-path="url(#clip0)">
<path d="M7.5 10.875C7.62361 10.875 7.74445 10.8383 7.84723 10.7697C7.95001 10.701 8.03012 10.6034 8.07743 10.4892C8.12473 10.375 8.13711 10.2493 8.11299 10.1281C8.08888 10.0068 8.02935 9.89547 7.94194 9.80806C7.85453 9.72065 7.74317 9.66113 7.62193 9.63701C7.50069 9.61289 7.37503 9.62527 7.26082 9.67257C7.14662 9.71988 7.04901 9.79999 6.98033 9.90277C6.91166 10.0055 6.875 10.1264 6.875 10.25C6.875 10.4158 6.94085 10.5747 7.05806 10.6919C7.17527 10.8092 7.33424 10.875 7.5 10.875ZM10.625 10.875C10.7486 10.875 10.8695 10.8383 10.9722 10.7697C11.075 10.701 11.1551 10.6034 11.2024 10.4892C11.2497 10.375 11.2621 10.2493 11.238 10.1281C11.2139 10.0068 11.1544 9.89547 11.0669 9.80806C10.9795 9.72065 10.8682 9.66113 10.7469 9.63701C10.6257 9.61289 10.5 9.62527 10.3858 9.67257C10.2716 9.71988 10.174 9.79999 10.1053 9.90277C10.0367 10.0055 10 10.1264 10 10.25C10 10.4158 10.0658 10.5747 10.1831 10.6919C10.3003 10.8092 10.4592 10.875 10.625 10.875ZM10.625 8.375C10.7486 8.375 10.8695 8.33834 10.9722 8.26967C11.075 8.20099 11.1551 8.10338 11.2024 7.98918C11.2497 7.87497 11.2621 7.74931 11.238 7.62807C11.2139 7.50683 11.1544 7.39547 11.0669 7.30806C10.9795 7.22065 10.8682 7.16112 10.7469 7.13701C10.6257 7.11289 10.5 7.12527 10.3858 7.17257C10.2716 7.21988 10.174 7.29999 10.1053 7.40277C10.0367 7.50555 10 7.62639 10 7.75C10 7.91576 10.0658 8.07473 10.1831 8.19194C10.3003 8.30915 10.4592 8.375 10.625 8.375ZM7.5 8.375C7.62361 8.375 7.74445 8.33834 7.84723 8.26967C7.95001 8.20099 8.03012 8.10338 8.07743 7.98918C8.12473 7.87497 8.13711 7.74931 8.11299 7.62807C8.08888 7.50683 8.02935 7.39547 7.94194 7.30806C7.85453 7.22065 7.74317 7.16112 7.62193 7.13701C7.50069 7.11289 7.37503 7.12527 7.26082 7.17257C7.14662 7.21988 7.04901 7.29999 6.98033 7.40277C6.91166 7.50555 6.875 7.62639 6.875 7.75C6.875 7.91576 6.94085 8.07473 7.05806 8.19194C7.17527 8.30915 7.33424 8.375 7.5 8.375ZM11.875 0.875H11.25V0.25C11.25 0.0842397 11.1842 -0.0747315 11.0669 -0.191942C10.9497 -0.309152 10.7908 -0.375 10.625 -0.375C10.4592 -0.375 10.3003 -0.309152 10.1831 -0.191942C10.0658 -0.0747315 10 0.0842397 10 0.25V0.875H5V0.25C5 0.0842397 4.93415 -0.0747315 4.81694 -0.191942C4.69973 -0.309152 4.54076 -0.375 4.375 -0.375C4.20924 -0.375 4.05027 -0.309152 3.93306 -0.191942C3.81585 -0.0747315 3.75 0.0842397 3.75 0.25V0.875H3.125C2.62772 0.875 2.15081 1.07254 1.79917 1.42417C1.44754 1.77581 1.25 2.25272 1.25 2.75V11.5C1.25 11.9973 1.44754 12.4742 1.79917 12.8258C2.15081 13.1775 2.62772 13.375 3.125 13.375H11.875C12.3723 13.375 12.8492 13.1775 13.2008 12.8258C13.5525 12.4742 13.75 11.9973 13.75 11.5V2.75C13.75 2.25272 13.5525 1.77581 13.2008 1.42417C12.8492 1.07254 12.3723 0.875 11.875 0.875ZM12.5 11.5C12.5 11.6658 12.4342 11.8247 12.3169 11.9419C12.1997 12.0592 12.0408 12.125 11.875 12.125H3.125C2.95924 12.125 2.80027 12.0592 2.68306 11.9419C2.56585 11.8247 2.5 11.6658 2.5 11.5V5.875H12.5V11.5ZM12.5 4.625H2.5V2.75C2.5 2.58424 2.56585 2.42527 2.68306 2.30806C2.80027 2.19085 2.95924 2.125 3.125 2.125H3.75V2.75C3.75 2.91576 3.81585 3.07473 3.93306 3.19194C4.05027 3.30915 4.20924 3.375 4.375 3.375C4.54076 3.375 4.69973 3.30915 4.81694 3.19194C4.93415 3.07473 5 2.91576 5 2.75V2.125H10V2.75C10 2.91576 10.0658 3.07473 10.1831 3.19194C10.3003 3.30915 10.4592 3.375 10.625 3.375C10.7908 3.375 10.9497 3.30915 11.0669 3.19194C11.1842 3.07473 11.25 2.91576 11.25 2.75V2.125H11.875C12.0408 2.125 12.1997 2.19085 12.3169 2.30806C12.4342 2.42527 12.5 2.58424 12.5 2.75V4.625ZM4.375 8.375C4.49861 8.375 4.61945 8.33834 4.72223 8.26967C4.82501 8.20099 4.90512 8.10338 4.95242 7.98918C4.99973 7.87497 5.01211 7.74931 4.98799 7.62807C4.96388 7.50683 4.90435 7.39547 4.81694 7.30806C4.72953 7.22065 4.61817 7.16112 4.49693 7.13701C4.37569 7.11289 4.25003 7.12527 4.13582 7.17257C4.02162 7.21988 3.92401 7.29999 3.85533 7.40277C3.78666 7.50555 3.75 7.62639 3.75 7.75C3.75 7.91576 3.81585 8.07473 3.93306 8.19194C4.05027 8.30915 4.20924 8.375 4.375 8.375ZM4.375 10.875C4.49861 10.875 4.61945 10.8383 4.72223 10.7697C4.82501 10.701 4.90512 10.6034 4.95242 10.4892C4.99973 10.375 5.01211 10.2493 4.98799 10.1281C4.96388 10.0068 4.90435 9.89547 4.81694 9.80806C4.72953 9.72065 4.61817 9.66113 4.49693 9.63701C4.37569 9.61289 4.25003 9.62527 4.13582 9.67257C4.02162 9.71988 3.92401 9.79999 3.85533 9.90277C3.78666 10.0055 3.75 10.1264 3.75 10.25C3.75 10.4158 3.81585 10.5747 3.93306 10.6919C4.05027 10.8092 4.20924 10.875 4.375 10.875Z" fill="white"/>
</g>
<defs>
<clipPath id="clip0">
<rect width="15" height="15" fill="white"/>
</clipPath>
</defs>
</svg>
