<svg width="18" height="17" viewBox="0 0 18 17" fill="none" xmlns="http://www.w3.org/2000/svg">
<path d="M5.11444 9.032C5.04154 9.10637 4.98368 9.19485 4.9442 9.29234C4.90471 9.38983 4.88438 9.49439 4.88438 9.6C4.88438 9.70561 4.90471 9.81017 4.9442 9.90766C4.98368 10.0051 5.04154 10.0936 5.11444 10.168L7.44778 12.568C7.52008 12.643 7.60611 12.7025 7.70088 12.7431C7.79566 12.7837 7.89732 12.8046 8 12.8046C8.10268 12.8046 8.20434 12.7837 8.29912 12.7431C8.39389 12.7025 8.47992 12.643 8.55222 12.568L10.8856 10.168C11.032 10.0174 11.1143 9.81304 11.1143 9.6C11.1143 9.38696 11.032 9.18264 10.8856 9.032C10.7391 8.88136 10.5405 8.79673 10.3333 8.79673C10.1262 8.79673 9.92757 8.88136 9.78111 9.032L8.77778 10.072V0.8C8.77778 0.587827 8.69583 0.384344 8.54997 0.234315C8.40411 0.0842854 8.20628 0 8 0C7.79372 0 7.59589 0.0842854 7.45003 0.234315C7.30417 0.384344 7.22222 0.587827 7.22222 0.8V10.072L6.21889 9.032C6.14658 8.95702 6.06056 8.8975 5.96578 8.85689C5.871 8.81627 5.76934 8.79536 5.66667 8.79536C5.56399 8.79536 5.46233 8.81627 5.36755 8.85689C5.27277 8.8975 5.18675 8.95702 5.11444 9.032ZM12.6667 5.6H11.1111C10.9048 5.6 10.707 5.68429 10.5611 5.83431C10.4153 5.98434 10.3333 6.18783 10.3333 6.4C10.3333 6.61217 10.4153 6.81566 10.5611 6.96569C10.707 7.11571 10.9048 7.2 11.1111 7.2H12.6667C12.8729 7.2 13.0708 7.28429 13.2166 7.43431C13.3625 7.58434 13.4444 7.78783 13.4444 8V13.6C13.4444 13.8122 13.3625 14.0157 13.2166 14.1657C13.0708 14.3157 12.8729 14.4 12.6667 14.4H3.33333C3.12705 14.4 2.92922 14.3157 2.78336 14.1657C2.6375 14.0157 2.55556 13.8122 2.55556 13.6V8C2.55556 7.78783 2.6375 7.58434 2.78336 7.43431C2.92922 7.28429 3.12705 7.2 3.33333 7.2H4.88889C5.09517 7.2 5.293 7.11571 5.43886 6.96569C5.58472 6.81566 5.66667 6.61217 5.66667 6.4C5.66667 6.18783 5.58472 5.98434 5.43886 5.83431C5.293 5.68429 5.09517 5.6 4.88889 5.6H3.33333C2.71449 5.6 2.121 5.85286 1.68342 6.30294C1.24583 6.75303 1 7.36348 1 8V13.6C1 14.2365 1.24583 14.847 1.68342 15.2971C2.121 15.7471 2.71449 16 3.33333 16H12.6667C13.2855 16 13.879 15.7471 14.3166 15.2971C14.7542 14.847 15 14.2365 15 13.6V8C15 7.36348 14.7542 6.75303 14.3166 6.30294C13.879 5.85286 13.2855 5.6 12.6667 5.6Z" fill="black" fill-opacity="0.5"/>
</svg>
