<svg width="25" height="24" viewBox="0 0 25 24" fill="none" xmlns="http://www.w3.org/2000/svg">
<path d="M19.9826 4H5.93403C5.13562 4 4.36991 4.31607 3.80535 4.87868C3.24078 5.44129 2.92361 6.20435 2.92361 7V17C2.92361 17.7956 3.24078 18.5587 3.80535 19.1213C4.36991 19.6839 5.13562 20 5.93403 20H19.9826C20.7811 20 21.5468 19.6839 22.1113 19.1213C22.6759 18.5587 22.9931 17.7956 22.9931 17V7C22.9931 6.20435 22.6759 5.44129 22.1113 4.87868C21.5468 4.31607 20.7811 4 19.9826 4ZM19.5712 6L13.6708 11.88C13.5775 11.9737 13.4665 12.0481 13.3442 12.0989C13.222 12.1497 13.0908 12.1758 12.9583 12.1758C12.8259 12.1758 12.6947 12.1497 12.5724 12.0989C12.4501 12.0481 12.3392 11.9737 12.2459 11.88L6.34545 6H19.5712ZM20.9861 17C20.9861 17.2652 20.8804 17.5196 20.6922 17.7071C20.504 17.8946 20.2488 18 19.9826 18H5.93403C5.66789 18 5.41266 17.8946 5.22447 17.7071C5.03628 17.5196 4.93056 17.2652 4.93056 17V7.41L10.831 13.29C11.3954 13.8518 12.1606 14.1674 12.9583 14.1674C13.7561 14.1674 14.5212 13.8518 15.0857 13.29L20.9861 7.41V17Z" fill="white" fill-opacity="0.8"/>
</svg>
