<svg width="24" height="25" viewBox="0 0 24 25" fill="none" xmlns="http://www.w3.org/2000/svg">
<path d="M12 1.99976C9.62551 1.99986 7.32849 2.86624 5.51999 4.4439C3.7115 6.02155 2.50953 8.20751 2.12916 10.6107C1.74879 13.0138 2.21485 15.4773 3.44393 17.5604C4.67301 19.6434 6.58492 21.2101 8.83755 21.9801C9.33755 22.0699 9.52505 21.7623 9.52505 21.4931C9.52505 21.2496 9.51254 20.4422 9.51254 19.5835C7.00003 20.0577 6.35003 18.9556 6.15003 18.3788C5.92811 17.8179 5.5763 17.3208 5.12503 16.9306C4.77503 16.7383 4.27503 16.2641 5.11252 16.2513C5.43231 16.2869 5.73902 16.401 6.00666 16.5839C6.2743 16.7669 6.49499 17.0133 6.65003 17.3022C6.7868 17.5541 6.97071 17.7759 7.19122 17.9548C7.41173 18.1337 7.66451 18.2663 7.93506 18.3449C8.20562 18.4234 8.48864 18.4465 8.76791 18.4127C9.04718 18.379 9.3172 18.289 9.56251 18.1481C9.6058 17.6269 9.83237 17.1395 10.2 16.7768C7.97503 16.5205 5.65003 15.6361 5.65003 11.7144C5.63598 10.6954 6.00272 9.70955 6.67503 8.95896C6.36931 8.07333 6.40508 7.10142 6.77503 6.24193C6.77503 6.24193 7.6125 5.97278 9.52503 7.29286C11.1613 6.83145 12.8887 6.83145 14.525 7.29286C16.4375 5.95998 17.275 6.24193 17.275 6.24193C17.645 7.10141 17.6808 8.07334 17.375 8.95896C18.0494 9.70827 18.4164 10.695 18.4 11.7144C18.4 15.649 16.0625 16.5205 13.8375 16.7768C14.0762 17.0248 14.26 17.3226 14.3765 17.6499C14.4929 17.9771 14.5393 18.3263 14.5125 18.6736C14.5125 20.045 14.5 21.1471 14.5 21.4932C14.5 21.7623 14.6875 22.0827 15.1875 21.9802C17.4362 21.2039 19.3426 19.6335 20.5665 17.5494C21.7903 15.4653 22.2519 13.003 21.8689 10.6022C21.4859 8.20138 20.2832 6.01826 18.4755 4.44253C16.6678 2.86679 14.3727 2.00102 12 1.99976Z" fill="white" fill-opacity="0.9"/>
</svg>
