<svg width="22" height="18" viewBox="0 0 22 18" fill="none" xmlns="http://www.w3.org/2000/svg">
<path d="M1.1 3H20.9C21.1917 3 21.4715 2.84196 21.6778 2.56066C21.8841 2.27936 22 1.89782 22 1.5C22 1.10218 21.8841 0.720645 21.6778 0.43934C21.4715 0.158036 21.1917 0 20.9 0H1.1C0.808262 0 0.528473 0.158036 0.322183 0.43934C0.115892 0.720645 0 1.10218 0 1.5C0 1.89782 0.115892 2.27936 0.322183 2.56066C0.528473 2.84196 0.808262 3 1.1 3ZM20.9 15H1.1C0.808262 15 0.528473 15.158 0.322183 15.4393C0.115892 15.7206 0 16.1022 0 16.5C0 16.8978 0.115892 17.2794 0.322183 17.5607C0.528473 17.842 0.808262 18 1.1 18H20.9C21.1917 18 21.4715 17.842 21.6778 17.5607C21.8841 17.2794 22 16.8978 22 16.5C22 16.1022 21.8841 15.7206 21.6778 15.4393C21.4715 15.158 21.1917 15 20.9 15ZM20.9 7.5H1.1C0.808262 7.5 0.528473 7.65804 0.322183 7.93934C0.115892 8.22064 0 8.60217 0 9C0 9.39783 0.115892 9.77936 0.322183 10.0607C0.528473 10.342 0.808262 10.5 1.1 10.5H20.9C21.1917 10.5 21.4715 10.342 21.6778 10.0607C21.8841 9.77936 22 9.39783 22 9C22 8.60217 21.8841 8.22064 21.6778 7.93934C21.4715 7.65804 21.1917 7.5 20.9 7.5Z" fill="black" fill-opacity="0.8"/>
</svg>
