<svg width="28" height="24" viewBox="0 0 28 24" fill="none" xmlns="http://www.w3.org/2000/svg">
<path d="M19.3169 5.46C19.0787 5.46 18.8459 5.53038 18.6479 5.66224C18.4499 5.79409 18.2955 5.98151 18.2044 6.20078C18.1132 6.42005 18.0894 6.66133 18.1358 6.89411C18.1823 7.12689 18.297 7.34071 18.4654 7.50853C18.6338 7.67635 18.8484 7.79064 19.082 7.83694C19.3155 7.88324 19.5577 7.85948 19.7777 7.76866C19.9977 7.67783 20.1858 7.52402 20.3181 7.32668C20.4504 7.12935 20.521 6.89734 20.521 6.66C20.521 6.34174 20.3942 6.03652 20.1684 5.81147C19.9425 5.58643 19.6362 5.46 19.3169 5.46ZM23.9329 7.88C23.9133 7.0503 23.7574 6.2294 23.4713 5.45C23.2161 4.78313 22.819 4.17928 22.3072 3.68C21.8103 3.16743 21.203 2.77418 20.5311 2.53C19.751 2.23616 18.9264 2.07721 18.0926 2.06C17.029 2 16.6878 2 13.9583 2C11.2289 2 10.8877 2 9.82403 2.06C8.9903 2.07721 8.16564 2.23616 7.38559 2.53C6.71495 2.77665 6.10811 3.16956 5.60945 3.68C5.09509 4.17518 4.70048 4.78044 4.45545 5.45C4.1606 6.22734 4.00109 7.04915 3.98382 7.88C3.92361 8.94 3.92361 9.28 3.92361 12C3.92361 14.72 3.92361 15.06 3.98382 16.12C4.00109 16.9508 4.1606 17.7727 4.45545 18.55C4.70048 19.2196 5.09509 19.8248 5.60945 20.32C6.10811 20.8304 6.71495 21.2234 7.38559 21.47C8.16564 21.7638 8.9903 21.9228 9.82403 21.94C10.8877 22 11.2289 22 13.9583 22C16.6878 22 17.029 22 18.0926 21.94C18.9264 21.9228 19.751 21.7638 20.5311 21.47C21.203 21.2258 21.8103 20.8326 22.3072 20.32C22.8212 19.8226 23.2187 19.2182 23.4713 18.55C23.7574 17.7706 23.9133 16.9497 23.9329 16.12C23.9329 15.06 23.9931 14.72 23.9931 12C23.9931 9.28 23.9931 8.94 23.9329 7.88ZM22.1266 16C22.1193 16.6348 22.0039 17.2637 21.7854 17.86C21.6252 18.2952 21.3679 18.6884 21.0328 19.01C20.7073 19.3405 20.3136 19.5964 19.8788 19.76C19.2805 19.9778 18.6493 20.0927 18.0124 20.1C17.0089 20.15 16.6376 20.16 13.9985 20.16C11.3593 20.16 10.9881 20.16 9.98459 20.1C9.32319 20.1123 8.66461 20.0109 8.03785 19.8C7.62219 19.6281 7.24647 19.3728 6.93403 19.05C6.60097 18.7287 6.34684 18.3352 6.19146 17.9C5.94647 17.2952 5.81059 16.6519 5.79007 16C5.79007 15 5.72986 14.63 5.72986 12C5.72986 9.37 5.72986 9 5.79007 8C5.79457 7.35106 5.91345 6.70795 6.14129 6.1C6.31795 5.67791 6.5891 5.30166 6.93403 5C7.2389 4.65617 7.61568 4.3831 8.03785 4.2C8.64952 3.98004 9.2942 3.86508 9.94445 3.86C10.9479 3.86 11.3192 3.8 13.9583 3.8C16.5975 3.8 16.9688 3.8 17.9722 3.86C18.6092 3.86728 19.2403 3.98225 19.8387 4.2C20.2947 4.36865 20.704 4.64285 21.0328 5C21.3617 5.30718 21.6186 5.68273 21.7854 6.1C22.0084 6.70893 22.1239 7.35178 22.1266 8C22.1768 9 22.1868 9.37 22.1868 12C22.1868 14.63 22.1768 15 22.1266 16ZM13.9583 6.87C12.9406 6.87198 11.9463 7.17453 11.1011 7.73942C10.2559 8.30431 9.59763 9.1062 9.20954 10.0438C8.82145 10.9813 8.72094 12.0125 8.9207 13.0069C9.12046 14.0014 9.61153 14.9145 10.3319 15.631C11.0522 16.3474 11.9695 16.835 12.9678 17.0321C13.9661 17.2293 15.0006 17.1271 15.9407 16.7385C16.8807 16.35 17.6841 15.6924 18.2493 14.849C18.8145 14.0056 19.1162 13.0142 19.1162 12C19.1175 11.3251 18.9849 10.6566 18.7261 10.033C18.4672 9.40931 18.0872 8.84281 17.6078 8.36605C17.1285 7.88929 16.5593 7.51168 15.933 7.25493C15.3066 6.99818 14.6356 6.86736 13.9583 6.87ZM13.9583 15.33C13.2974 15.33 12.6514 15.1347 12.1019 14.7688C11.5523 14.4029 11.1241 13.8828 10.8711 13.2743C10.6182 12.6659 10.552 11.9963 10.681 11.3503C10.8099 10.7044 11.1282 10.111 11.5955 9.64534C12.0628 9.17963 12.6582 8.86247 13.3064 8.73398C13.9546 8.6055 14.6265 8.67144 15.2371 8.92348C15.8477 9.17552 16.3696 9.60234 16.7367 10.15C17.1039 10.6976 17.2999 11.3414 17.2999 12C17.2999 12.4373 17.2135 12.8703 17.0455 13.2743C16.8776 13.6784 16.6315 14.0454 16.3212 14.3547C16.0109 14.6639 15.6425 14.9092 15.2371 15.0765C14.8317 15.2439 14.3972 15.33 13.9583 15.33Z" fill="white" fill-opacity="0.8"/>
</svg>
