<svg width="24" height="24" viewBox="0 0 24 24" fill="none" xmlns="http://www.w3.org/2000/svg">
<path d="M20.47 1.99965H3.53C3.33958 1.99701 3.1505 2.0319 2.97356 2.10234C2.79663 2.17277 2.6353 2.27737 2.4988 2.41016C2.36229 2.54295 2.25328 2.70134 2.17799 2.87626C2.1027 3.05119 2.06261 3.23923 2.06 3.42965V20.5697C2.06261 20.7601 2.1027 20.9481 2.17799 21.123C2.25328 21.298 2.36229 21.4563 2.4988 21.5891C2.6353 21.7219 2.79663 21.8265 2.97356 21.897C3.1505 21.9674 3.33958 22.0023 3.53 21.9997H20.47C20.6604 22.0023 20.8495 21.9674 21.0264 21.897C21.2034 21.8265 21.3647 21.7219 21.5012 21.5891C21.6377 21.4563 21.7467 21.298 21.822 21.123C21.8973 20.9481 21.9374 20.7601 21.94 20.5697V3.42965C21.9374 3.23923 21.8973 3.05119 21.822 2.87626C21.7467 2.70134 21.6377 2.54295 21.5012 2.41016C21.3647 2.27737 21.2034 2.17277 21.0264 2.10234C20.8495 2.0319 20.6604 1.99701 20.47 1.99965ZM8.09 18.7397H5.09V9.73965H8.09V18.7397ZM6.59 8.47965C6.17626 8.47965 5.77947 8.31529 5.48691 8.02274C5.19435 7.73018 5.03 7.33339 5.03 6.91965C5.03 6.50591 5.19435 6.10912 5.48691 5.81657C5.77947 5.52401 6.17626 5.35965 6.59 5.35965C6.80969 5.33474 7.03217 5.35651 7.24287 5.42353C7.45357 5.49056 7.64774 5.60134 7.81265 5.74861C7.97757 5.89589 8.10952 6.07633 8.19987 6.27813C8.29021 6.47994 8.33692 6.69855 8.33692 6.91965C8.33692 7.14076 8.29021 7.35937 8.19987 7.56117C8.10952 7.76297 7.97757 7.94342 7.81265 8.09069C7.64774 8.23796 7.45357 8.34874 7.24287 8.41577C7.03217 8.4828 6.80969 8.50457 6.59 8.47965ZM18.91 18.7397H15.91V13.9097C15.91 12.6997 15.48 11.9097 14.39 11.9097C14.0527 11.9121 13.7242 12.0179 13.4488 12.2128C13.1735 12.4077 12.9645 12.6823 12.85 12.9997C12.7717 13.2347 12.7378 13.4822 12.75 13.7297V18.7297H9.75C9.75 18.7297 9.75 10.5497 9.75 9.72965H12.75V10.9997C13.0225 10.5268 13.4189 10.1372 13.8964 9.87285C14.374 9.60854 14.9146 9.4795 15.46 9.49965C17.46 9.49965 18.91 10.7897 18.91 13.5597V18.7397Z" fill="white" fill-opacity="0.9"/>
</svg>
