<svg width="24" height="24" viewBox="0 0 24 24" fill="none" xmlns="http://www.w3.org/2000/svg">
<path d="M21.209 6.41639H22V4.08301H14.5198L12.0339 13.2496H11.9659L9.50269 4.08301H2V6.41633H2.76837C2.946 6.44524 3.1108 6.52698 3.2413 6.65091C3.3718 6.77483 3.46195 6.93519 3.5 7.11109V16.9414C3.4596 17.111 3.36749 17.2638 3.23642 17.3788C3.10534 17.4937 2.94178 17.5651 2.76837 17.583H2V19.9164H8V17.583H6.5V7.2497H6.58752L10.0451 19.9164H12.7571L16.2599 7.2497H16.3334V17.583H14.8334V19.9164H22V17.583H21.209C21.0396 17.561 20.8809 17.4877 20.7542 17.3731C20.6275 17.2584 20.5388 17.1078 20.5 16.9414V7.11115C20.5367 6.93844 20.6236 6.78041 20.7497 6.65683C20.8759 6.53325 21.0356 6.44961 21.209 6.41639Z" fill="white" fill-opacity="0.9"/>
<rect x="0.5" y="0.499756" width="23" height="23" stroke="black"/>
</svg>
