<svg width="14" height="14" viewBox="0 0 14 14" fill="none" xmlns="http://www.w3.org/2000/svg">
<path d="M12.5619 5.21334L3.1962 0.546671C2.82658 0.363344 2.40922 0.298078 2.00102 0.359772C1.59282 0.421466 1.21364 0.607118 0.915191 0.891415C0.61674 1.17571 0.413536 1.54482 0.333285 1.94841C0.253034 2.352 0.299641 2.77044 0.466752 3.14667L2.07231 6.72667C2.10874 6.81323 2.1275 6.90615 2.1275 7.00001C2.1275 7.09386 2.10874 7.18678 2.07231 7.27334L0.466752 10.8533C0.330748 11.1578 0.273253 11.4913 0.299491 11.8236C0.32573 12.1558 0.43487 12.4763 0.616993 12.7558C0.799116 13.0353 1.04845 13.2651 1.34233 13.4242C1.63621 13.5832 1.96533 13.6666 2.29976 13.6667C2.613 13.6636 2.92157 13.5907 3.20289 13.4533L12.5686 8.78667C12.9008 8.62013 13.1801 8.36488 13.3752 8.04939C13.5703 7.73391 13.6737 7.3706 13.6737 7.00001C13.6737 6.62941 13.5703 6.2661 13.3752 5.95062C13.1801 5.63514 12.9008 5.37988 12.5686 5.21334H12.5619ZM11.9665 7.59334L2.6008 12.26C2.47782 12.3189 2.33972 12.3388 2.20502 12.3172C2.07033 12.2957 1.94547 12.2335 1.8472 12.1392C1.74893 12.0449 1.68194 11.9229 1.65522 11.7896C1.62849 11.6563 1.64331 11.518 1.69768 11.3933L3.29654 7.81334C3.31724 7.76553 3.33511 7.71656 3.35006 7.66667H7.95934C8.13677 7.66667 8.30693 7.59643 8.43239 7.47141C8.55784 7.34639 8.62833 7.17682 8.62833 7.00001C8.62833 6.82319 8.55784 6.65363 8.43239 6.5286C8.30693 6.40358 8.13677 6.33334 7.95934 6.33334H3.35006C3.33511 6.28345 3.31724 6.23448 3.29654 6.18667L1.69768 2.60667C1.64331 2.48198 1.62849 2.3437 1.65522 2.21038C1.68194 2.07706 1.74893 1.95507 1.8472 1.86077C1.94547 1.76647 2.07033 1.70436 2.20502 1.68277C2.33972 1.66119 2.47782 1.68116 2.6008 1.74L11.9665 6.40667C12.0761 6.46262 12.1681 6.54761 12.2323 6.6523C12.2965 6.75699 12.3305 6.87731 12.3305 7.00001C12.3305 7.1227 12.2965 7.24302 12.2323 7.34771C12.1681 7.4524 12.0761 7.53739 11.9665 7.59334Z" fill="#121212"/>
</svg>
