<svg width="21" height="21" viewBox="0 0 21 21" fill="none" xmlns="http://www.w3.org/2000/svg">
<path d="M14.0278 5.02781H6.02781C5.7626 5.02781 5.50824 5.13317 5.32071 5.32071C5.13317 5.50824 5.02781 5.7626 5.02781 6.02781V14.0278C5.02781 14.293 5.13317 14.5474 5.32071 14.7349C5.50824 14.9225 5.7626 15.0278 6.02781 15.0278H14.0278C14.293 15.0278 14.5474 14.9225 14.7349 14.7349C14.9225 14.5474 15.0278 14.293 15.0278 14.0278V6.02781C15.0278 5.7626 14.9225 5.50824 14.7349 5.32071C14.5474 5.13317 14.293 5.02781 14.0278 5.02781ZM13.0278 13.0278H7.02781V7.02781H13.0278V13.0278ZM19.0278 16.3078V3.74781C19.2983 3.59738 19.5301 3.38624 19.7051 3.131C19.8801 2.87576 19.9935 2.58339 20.0364 2.27689C20.0792 1.9704 20.0503 1.65814 19.952 1.3647C19.8537 1.07125 19.6887 0.804619 19.4698 0.585787C19.251 0.366955 18.9844 0.201892 18.6909 0.103586C18.3975 0.00528037 18.0852 -0.0235853 17.7787 0.0192604C17.4722 0.0621061 17.1799 0.175494 16.9246 0.350502C16.6694 0.52551 16.4583 0.757362 16.3078 1.02781H3.74781C3.59738 0.757362 3.38624 0.52551 3.131 0.350502C2.87576 0.175494 2.58339 0.0621061 2.27689 0.0192604C1.9704 -0.0235853 1.65814 0.00528037 1.3647 0.103586C1.07125 0.201892 0.804619 0.366955 0.585787 0.585787C0.366955 0.804619 0.201892 1.07125 0.103586 1.3647C0.00528037 1.65814 -0.0235853 1.9704 0.0192604 2.27689C0.0621061 2.58339 0.175494 2.87576 0.350502 3.131C0.52551 3.38624 0.757362 3.59738 1.02781 3.74781V16.3078C0.757362 16.4583 0.52551 16.6694 0.350502 16.9246C0.175494 17.1799 0.0621061 17.4722 0.0192604 17.7787C-0.0235853 18.0852 0.00528037 18.3975 0.103586 18.6909C0.201892 18.9844 0.366955 19.251 0.585787 19.4698C0.804619 19.6887 1.07125 19.8537 1.3647 19.952C1.65814 20.0503 1.9704 20.0792 2.27689 20.0364C2.58339 19.9935 2.87576 19.8801 3.131 19.7051C3.38624 19.5301 3.59738 19.2983 3.74781 19.0278H16.3078C16.4583 19.2983 16.6694 19.5301 16.9246 19.7051C17.1799 19.8801 17.4722 19.9935 17.7787 20.0364C18.0852 20.0792 18.3975 20.0503 18.6909 19.952C18.9844 19.8537 19.251 19.6887 19.4698 19.4698C19.6887 19.251 19.8537 18.9844 19.952 18.6909C20.0503 18.3975 20.0792 18.0852 20.0364 17.7787C19.9935 17.4722 19.8801 17.1799 19.7051 16.9246C19.5301 16.6694 19.2983 16.4583 19.0278 16.3078ZM17.0278 16.3078C16.7271 16.4782 16.4782 16.7271 16.3078 17.0278H3.74781C3.57739 16.7271 3.32854 16.4782 3.02781 16.3078V3.74781C3.32854 3.57739 3.57739 3.32854 3.74781 3.02781H16.3078C16.4782 3.32854 16.7271 3.57739 17.0278 3.74781V16.3078Z" fill="black"/>
</svg>
