<svg width="20" height="21" viewBox="0 0 20 21" fill="none" xmlns="http://www.w3.org/2000/svg">
<path d="M18.0045 8.15161V7.98161C18.0105 6.28056 17.4708 4.6224 16.4646 3.25083C15.4584 1.87925 14.0389 0.866573 12.4145 0.361613H12.3545C11.5155 0.105846 10.6414 -0.0156546 9.76446 0.00161252C7.67629 0.116205 5.71056 1.02336 4.26846 2.53794C2.82635 4.05251 2.0166 6.06033 2.00446 8.15161C1.41847 8.35775 0.910921 8.74071 0.551876 9.24763C0.192832 9.75455 0 10.3604 0 10.9816C0 11.6028 0.192832 12.2087 0.551876 12.7156C0.910921 13.2225 1.41847 13.6055 2.00446 13.8116C2.21043 15.7864 3.14338 17.614 4.62194 18.9392C6.10049 20.2643 8.019 20.9923 10.0045 20.9816H10.2345C12.1544 20.8887 13.9794 20.1185 15.3853 18.8077C16.7913 17.4969 17.6874 15.7304 17.9145 13.8216C18.5073 13.6271 19.0248 13.2526 19.3949 12.7502C19.7649 12.2478 19.9691 11.6426 19.979 11.0187C19.9889 10.3948 19.8041 9.78333 19.4501 9.26944C19.0962 8.75556 18.5909 8.36481 18.0045 8.15161ZM10.1845 18.9816C8.73686 19.0235 7.32296 18.5404 6.20366 17.6214C5.08437 16.7025 4.33522 15.4097 4.09446 13.9816H15.8645C15.6204 15.3335 14.9264 16.5632 13.8953 17.4709C12.8641 18.3786 11.5564 18.911 10.1845 18.9816ZM17.0045 11.9816H3.00446C2.73924 11.9816 2.48489 11.8763 2.29735 11.6887C2.10982 11.5012 2.00446 11.2468 2.00446 10.9816C2.00446 10.7164 2.10982 10.462 2.29735 10.2745C2.48489 10.087 2.73924 9.98161 3.00446 9.98161H5.00446C5.26968 9.98161 5.52403 9.87626 5.71157 9.68872C5.8991 9.50118 6.00446 9.24683 6.00446 8.98161C6.00446 8.7164 5.8991 8.46204 5.71157 8.27451C5.52403 8.08697 5.26968 7.98161 5.00446 7.98161H4.00446C4.04922 6.94422 4.34572 5.9333 4.86838 5.03608C5.39103 4.13886 6.12415 3.38227 7.00446 2.83161V5.98161C7.00446 6.24683 7.10982 6.50118 7.29735 6.68872C7.48489 6.87626 7.73924 6.98161 8.00446 6.98161C8.26968 6.98161 8.52403 6.87626 8.71157 6.68872C8.8991 6.50118 9.00446 6.24683 9.00446 5.98161V2.07161C9.27589 2.02626 9.54966 1.99622 9.82446 1.98161H10.0045C10.3396 1.98633 10.6739 2.01642 11.0045 2.07161V5.98161C11.0045 6.24683 11.1098 6.50118 11.2974 6.68872C11.4849 6.87626 11.7392 6.98161 12.0045 6.98161C12.2697 6.98161 12.524 6.87626 12.7116 6.68872C12.8991 6.50118 13.0045 6.24683 13.0045 5.98161V2.80161C13.4287 3.04724 13.8244 3.33901 14.1845 3.67161C14.761 4.23151 15.2192 4.90153 15.5319 5.64191C15.8445 6.38229 16.0052 7.17793 16.0045 7.98161H15.0045C14.7392 7.98161 14.4849 8.08697 14.2974 8.27451C14.1098 8.46204 14.0045 8.7164 14.0045 8.98161C14.0045 9.24683 14.1098 9.50118 14.2974 9.68872C14.4849 9.87626 14.7392 9.98161 15.0045 9.98161H17.0045C17.2697 9.98161 17.524 10.087 17.7116 10.2745C17.8991 10.462 18.0045 10.7164 18.0045 10.9816C18.0045 11.2468 17.8991 11.5012 17.7116 11.6887C17.524 11.8763 17.2697 11.9816 17.0045 11.9816Z" fill="white"/>
</svg>
