<svg width="65" height="38" viewBox="0 0 65 38" fill="none" xmlns="http://www.w3.org/2000/svg">
<path d="M17.7345 0V8.07013V36.4708H9.62207V8.07013H0V0H17.7345Z" fill="black"/>
<path d="M32.0727 37.1406L24.4282 23.1203H22.2814V0H28.3552C31.2524 0 33.7133 0.511433 35.7379 1.5343C37.7974 2.55716 39.3333 3.96802 40.3456 5.76685C41.3579 7.53041 41.864 9.5056 41.864 11.6924C41.864 14.1614 41.1659 16.3659 39.7696 18.3058C38.4083 20.2457 36.3837 21.6213 33.6959 22.4325L42.1782 37.1406H32.0727ZM22.2814 16.7186H27.8316C29.4722 16.7186 30.6939 16.313 31.4968 15.5017C32.3345 14.6905 32.7534 13.5442 32.7534 12.0628C32.7534 10.6519 32.3345 9.54087 31.4968 8.72964C30.6939 7.9184 29.4722 7.51277 27.8316 7.51277H22.2814V16.7186Z" fill="black"/>
<path d="M53.9591 37.1406L46.3146 23.1203H44.1678V0H50.2416C53.1388 0 55.5998 0.511433 57.6243 1.5343C59.6838 2.55716 61.2197 3.96802 62.232 5.76685C63.2443 7.53041 63.7504 9.5056 63.7504 11.6924C63.7504 14.1614 63.0523 16.3659 61.6561 18.3058C60.2947 20.2457 58.2701 21.6213 55.5823 22.4325L64.0646 37.1406H53.9591ZM44.1678 16.7186H49.718C51.3586 16.7186 52.5803 16.313 53.3832 15.5017C54.2209 14.6905 54.6398 13.5442 54.6398 12.0628C54.6398 10.6519 54.2209 9.54087 53.3832 8.72964C52.5803 7.9184 51.3586 7.51277 49.718 7.51277H44.1678V16.7186Z" fill="black"/>
</svg>
