<svg width="77" height="34" viewBox="0 0 77 34" fill="none" xmlns="http://www.w3.org/2000/svg">
<path d="M4.41272 21.6016C4.83819 21.1397 5.34875 20.8054 5.94441 20.5988C6.55222 20.3921 7.26336 20.2888 8.07783 20.2888L7.56727 22.9145C7.22689 22.8902 7.00808 22.8781 6.91083 22.8781C6.04774 22.8781 5.35483 23.0908 4.83211 23.5163C4.32155 23.9417 3.9751 24.6042 3.79275 25.5038L2.84456 30.2447H0L1.95108 20.4346H4.64977L4.41272 21.6016Z" fill="white"/>
<path d="M24.9367 20.4346L18.4088 30.9012C17.7037 32.0439 17.0169 32.834 16.3483 33.2717C15.6918 33.7093 14.8834 33.9281 13.9231 33.9281C13.4125 33.9281 12.9141 33.8491 12.4279 33.691C11.9295 33.533 11.5405 33.3264 11.2609 33.0711L12.5737 31.0288C13.0114 31.43 13.5341 31.6306 14.1419 31.6306C14.5066 31.6306 14.8227 31.5394 15.0901 31.357C15.3575 31.1747 15.631 30.8647 15.9106 30.4271L16.0018 30.263L13.7407 20.4346H16.5853L18.0441 27.1084L22.1286 20.4346H24.9367Z" fill="white"/>
<path d="M35.7863 20.4346L33.8352 30.2447H31.1365L31.3188 29.2783C30.5044 30.0199 29.5015 30.3906 28.3102 30.3906C27.5443 30.3906 26.8393 30.2144 26.195 29.8618C25.5507 29.5093 25.0341 29.0048 24.6451 28.3484C24.2682 27.6798 24.0798 26.8957 24.0798 25.9961C24.0798 24.9142 24.3168 23.9417 24.7909 23.0786C25.2772 22.2034 25.9336 21.5226 26.7602 21.0364C27.5869 20.538 28.4986 20.2888 29.4954 20.2888C31.0028 20.2888 32.0664 20.7811 32.6864 21.7658L32.9417 20.4346H35.7863ZM29.1854 28.0384C29.7446 28.0384 30.243 27.9047 30.6806 27.6372C31.1183 27.3576 31.4586 26.9747 31.7018 26.4885C31.9449 26.0022 32.0664 25.443 32.0664 24.8109C32.0664 24.1423 31.8659 23.6135 31.4647 23.2245C31.0757 22.8355 30.5287 22.641 29.8236 22.641C29.2644 22.641 28.766 22.7808 28.3284 23.0604C27.8908 23.3278 27.5504 23.7047 27.3073 24.1909C27.0641 24.6772 26.9426 25.2364 26.9426 25.8685C26.9426 26.5371 27.1371 27.0659 27.5261 27.4549C27.9272 27.8439 28.4803 28.0384 29.1854 28.0384Z" fill="white"/>
<path d="M44.1272 20.2888C45.2213 20.2888 46.0904 20.5805 46.7347 21.164C47.379 21.7354 47.7011 22.5559 47.7011 23.6257C47.7011 24.0268 47.6586 24.4219 47.5735 24.8109L46.4794 30.2447H43.6349L44.6925 24.9932C44.7411 24.7866 44.7654 24.5617 44.7654 24.3186C44.7654 23.808 44.6256 23.419 44.346 23.1516C44.0664 22.8841 43.647 22.7504 43.0878 22.7504C42.3585 22.7504 41.7507 22.9632 41.2644 23.3886C40.7903 23.8019 40.4682 24.428 40.298 25.2668L39.3133 30.2447H36.4688L38.4198 20.4346H41.1185L40.8997 21.4922C41.775 20.6899 42.8508 20.2888 44.1272 20.2888Z" fill="white"/>
<path d="M54.3068 30.3906C53.3222 30.3906 52.453 30.2083 51.6993 29.8436C50.9578 29.4789 50.3804 28.9683 49.9671 28.3119C49.5659 27.6433 49.3653 26.8714 49.3653 25.9961C49.3653 24.9142 49.6206 23.9417 50.1312 23.0786C50.6417 22.2155 51.3468 21.5348 52.2463 21.0364C53.1459 20.538 54.161 20.2888 55.2915 20.2888C56.2883 20.2888 57.1575 20.4711 57.899 20.8358C58.6405 21.2005 59.2119 21.7171 59.613 22.3857C60.0264 23.0422 60.233 23.808 60.233 24.6833C60.233 25.7652 59.9777 26.7377 59.4672 27.6008C58.9688 28.4639 58.2637 29.1446 57.352 29.643C56.4524 30.1414 55.4374 30.3906 54.3068 30.3906ZM54.4892 28.0384C55.0362 28.0384 55.5285 27.9047 55.9662 27.6372C56.4038 27.3576 56.7442 26.9747 56.9873 26.4885C57.2304 26.0022 57.352 25.443 57.352 24.8109C57.352 24.1423 57.1575 23.6135 56.7685 23.2245C56.3795 22.8355 55.8324 22.641 55.1274 22.641C54.5682 22.641 54.0698 22.7808 53.6322 23.0604C53.1945 23.3278 52.8542 23.7047 52.611 24.1909C52.3679 24.6772 52.2463 25.2364 52.2463 25.8685C52.2463 26.5371 52.4408 27.0659 52.8298 27.4549C53.231 27.8439 53.7841 28.0384 54.4892 28.0384Z" fill="white"/>
<path d="M72.5348 20.4346L66.4445 30.2447H63.5088L61.3389 20.4346H64.147L65.5693 27.1267L69.6902 20.4346H72.5348Z" fill="white"/>
<path d="M72.4515 30.3906C71.9652 30.3906 71.5641 30.2387 71.248 29.9348C70.9319 29.6187 70.7739 29.2236 70.7739 28.7495C70.7739 28.1903 70.9563 27.7345 71.3209 27.382C71.6856 27.0294 72.1354 26.8532 72.6703 26.8532C73.1565 26.8532 73.5516 27.0051 73.8555 27.309C74.1716 27.6129 74.3296 28.008 74.3296 28.4942C74.3296 29.0413 74.1412 29.4971 73.7644 29.8618C73.3997 30.2144 72.962 30.3906 72.4515 30.3906Z" fill="white"/>
<path fill-rule="evenodd" clip-rule="evenodd" d="M12.5591 20.4346H9.73274L7.78167 30.2447H10.608L12.5591 20.4346Z" fill="white"/>
<path d="M38.7177 6.01735C39.1432 5.32444 39.6841 4.8078 40.3405 4.46742C41.0091 4.11489 41.8175 3.93863 42.7657 3.93863L42.6016 4.83211L42.3099 4.81388C41.228 4.81388 40.3405 5.13602 39.6476 5.7803C38.9547 6.42458 38.4806 7.37885 38.2254 8.6431L37.2407 13.5299H36.329L38.2254 4.01157H39.1188L38.7177 6.01735Z" fill="white"/>
<path d="M56.2137 4.63153L48.3729 12.7458H54.7003L54.5362 13.5299H46.9689L47.0965 12.9099L54.9191 4.79564H48.8288L48.9747 4.01157H56.3414L56.2137 4.63153Z" fill="white"/>
<path d="M62.4121 7.89549L65.8402 13.5299H64.7826L61.701 8.44252L58.747 10.7218L58.1817 13.5299H57.27L59.9687 0H60.8804L58.9841 9.53658L66.0772 4.01157H67.4083L62.4121 7.89549Z" fill="white"/>
<path d="M76.8502 4.01157L69.7388 14.934C69.2039 15.7606 68.6933 16.3319 68.2071 16.648C67.733 16.9762 67.1677 17.1403 66.5113 17.1403C66.0737 17.1403 65.6604 17.0674 65.2714 16.9215C64.8824 16.7756 64.5785 16.569 64.3596 16.3015L64.8884 15.6269C65.3139 16.101 65.8853 16.338 66.6025 16.338C67.0401 16.338 67.4352 16.2164 67.7877 15.9733C68.1524 15.7302 68.5353 15.3047 68.9365 14.6969L69.7388 13.4934L67.3318 4.01157H68.2618L70.3952 12.527L75.902 4.01157H76.8502Z" fill="white"/>
<path fill-rule="evenodd" clip-rule="evenodd" d="M46.153 4.01157H45.2413L43.3449 13.5299H44.2567L46.153 4.01157Z" fill="white"/>
<path d="M3.03912 10.7765C2.99049 11.0075 2.96618 11.2324 2.96618 11.4512C2.96618 12.3629 3.45243 12.8188 4.42493 12.8188C5.00843 12.8188 5.52507 12.6425 5.97485 12.29L6.24837 12.9646C5.72565 13.3901 5.0449 13.6028 4.20612 13.6028C3.52537 13.6028 2.99049 13.4266 2.60149 13.0741C2.22465 12.7094 2.03623 12.211 2.03623 11.5788C2.03623 11.3236 2.06054 11.0804 2.10917 10.8495L3.33087 4.79564H1.56213L1.70801 4.01156H3.47674L3.89614 1.93284H4.80785L4.38846 4.01156H7.41537L7.2695 4.79564H4.24259L3.03912 10.7765Z" fill="white"/>
<path d="M12.373 13.6028C11.0844 13.6028 10.0572 13.2442 9.29138 12.527C8.53769 11.8098 8.16084 10.8495 8.16084 9.64599C8.16084 8.56408 8.39181 7.59158 8.85375 6.72849C9.32785 5.86539 9.9782 5.18464 10.8048 4.68623C11.6315 4.18783 12.5675 3.93863 13.6129 3.93863C14.9015 3.93863 15.9226 4.29724 16.6763 5.01445C17.4421 5.71952 17.8251 6.67986 17.8251 7.89549C17.8251 8.97739 17.588 9.95597 17.1139 10.8312C16.652 11.6943 16.0077 12.3751 15.1811 12.8735C14.3545 13.3597 13.4184 13.6028 12.373 13.6028ZM12.4459 12.7823C13.2969 12.7823 14.0566 12.5756 14.7252 12.1623C15.406 11.749 15.9408 11.1777 16.3298 10.4483C16.7188 9.70677 16.9134 8.87407 16.9134 7.95019C16.9134 6.94122 16.6155 6.15714 16.0199 5.59795C15.4364 5.03877 14.6097 4.75917 13.54 4.75917C12.689 4.75917 11.9232 4.97191 11.2425 5.39738C10.5739 5.81069 10.0451 6.38811 9.65606 7.12964C9.26706 7.85902 9.07256 8.67957 9.07256 9.59128C9.07256 10.6003 9.36431 11.3843 9.94781 11.9435C10.5435 12.5027 11.3762 12.7823 12.4459 12.7823Z" fill="white"/>
<path d="M25.978 3.93863C27.0599 3.93863 27.8926 4.21214 28.4761 4.75917C29.0596 5.29405 29.3513 6.03558 29.3513 6.98377C29.3513 7.31199 29.3149 7.65844 29.2419 8.02313L28.1479 13.5299H27.2361L28.3302 8.02313C28.391 7.74353 28.4214 7.43963 28.4214 7.11141C28.4214 6.35772 28.1904 5.7803 27.7285 5.37914C27.2787 4.96583 26.6162 4.75917 25.7409 4.75917C24.6469 4.75917 23.7351 5.06916 23.0058 5.68913C22.2764 6.29694 21.7962 7.18435 21.5653 8.35135L20.5259 13.5299H19.6142L21.5106 4.01156H22.404L22.0393 5.81677C22.4891 5.18464 23.0483 4.71663 23.7169 4.41272C24.3977 4.09666 25.1513 3.93863 25.978 3.93863Z" fill="white"/>
<path fill-rule="evenodd" clip-rule="evenodd" d="M34.6913 4.01156H33.7796L31.8832 13.5299H32.7949L34.6913 4.01156Z" fill="white"/>
</svg>
