<svg width="115" height="20" viewBox="0 0 115 20" fill="none" xmlns="http://www.w3.org/2000/svg">
<path d="M3.216 8.704C3.792 7.808 4.80533 7.36 6.256 7.36V9.264C6.08533 9.232 5.93067 9.216 5.792 9.216C5.01333 9.216 4.40533 9.44533 3.968 9.904C3.53067 10.352 3.312 11.0027 3.312 11.856V16H1.312V7.456H3.216V8.704ZM7.95263 7.456H9.95263V16H7.95263V7.456ZM8.96063 6.048C8.59796 6.048 8.29396 5.936 8.04863 5.712C7.80329 5.47733 7.68063 5.18933 7.68063 4.848C7.68063 4.50667 7.80329 4.224 8.04863 4C8.29396 3.76533 8.59796 3.648 8.96063 3.648C9.32329 3.648 9.62729 3.76 9.87263 3.984C10.118 4.19733 10.2406 4.46933 10.2406 4.8C10.2406 5.152 10.118 5.45067 9.87263 5.696C9.63796 5.93067 9.33396 6.048 8.96063 6.048ZM20.5776 7.456L16.5776 16.688C16.2043 17.616 15.751 18.2667 15.2176 18.64C14.6843 19.024 14.039 19.216 13.2816 19.216C12.855 19.216 12.4336 19.1467 12.0176 19.008C11.6016 18.8693 11.2603 18.6773 10.9936 18.432L11.7936 16.96C11.9856 17.1413 12.2096 17.2853 12.4656 17.392C12.7323 17.4987 12.999 17.552 13.2656 17.552C13.6176 17.552 13.9056 17.4613 14.1296 17.28C14.3643 17.0987 14.5776 16.7947 14.7696 16.368L14.9136 16.032L11.1856 7.456H13.2656L15.9536 13.776L18.6576 7.456H20.5776ZM24.826 7.36C26.0847 7.36 27.0447 7.664 27.706 8.272C28.378 8.86933 28.714 9.776 28.714 10.992V16H26.826V14.96C26.5807 15.3333 26.2287 15.6213 25.77 15.824C25.322 16.016 24.778 16.112 24.138 16.112C23.498 16.112 22.938 16.0053 22.458 15.792C21.978 15.568 21.6047 15.264 21.338 14.88C21.082 14.4853 20.954 14.0427 20.954 13.552C20.954 12.784 21.2367 12.1707 21.802 11.712C22.378 11.2427 23.2793 11.008 24.506 11.008H26.714V10.88C26.714 10.2827 26.5327 9.824 26.17 9.504C25.818 9.184 25.29 9.024 24.586 9.024C24.106 9.024 23.6313 9.09867 23.162 9.248C22.7033 9.39733 22.314 9.60533 21.994 9.872L21.21 8.416C21.658 8.07467 22.1967 7.81333 22.826 7.632C23.4553 7.45067 24.122 7.36 24.826 7.36ZM24.554 14.656C25.0553 14.656 25.498 14.544 25.882 14.32C26.2767 14.0853 26.554 13.7547 26.714 13.328V12.336H24.65C23.498 12.336 22.922 12.7147 22.922 13.472C22.922 13.8347 23.066 14.1227 23.354 14.336C23.642 14.5493 24.042 14.656 24.554 14.656ZM36.1288 7.36C37.2061 7.36 38.0701 7.67467 38.7208 8.304C39.3714 8.93333 39.6968 9.86667 39.6968 11.104V16H37.6968V11.36C37.6968 10.6133 37.5208 10.0533 37.1688 9.68C36.8168 9.296 36.3154 9.104 35.6648 9.104C34.9288 9.104 34.3474 9.328 33.9208 9.776C33.4941 10.2133 33.2808 10.848 33.2808 11.68V16H31.2808V7.456H33.1848V8.56C33.5154 8.16533 33.9314 7.86667 34.4328 7.664C34.9341 7.46133 35.4994 7.36 36.1288 7.36ZM46.152 16.112C45.288 16.112 44.5093 15.9253 43.816 15.552C43.1227 15.1787 42.5787 14.6613 42.184 14C41.8 13.328 41.608 12.5707 41.608 11.728C41.608 10.8853 41.8 10.1333 42.184 9.472C42.5787 8.81067 43.1227 8.29333 43.816 7.92C44.5093 7.54667 45.288 7.36 46.152 7.36C47.0267 7.36 47.8107 7.54667 48.504 7.92C49.1973 8.29333 49.736 8.81067 50.12 9.472C50.5147 10.1333 50.712 10.8853 50.712 11.728C50.712 12.5707 50.5147 13.328 50.12 14C49.736 14.6613 49.1973 15.1787 48.504 15.552C47.8107 15.9253 47.0267 16.112 46.152 16.112ZM46.152 14.4C46.888 14.4 47.496 14.1547 47.976 13.664C48.456 13.1733 48.696 12.528 48.696 11.728C48.696 10.928 48.456 10.2827 47.976 9.792C47.496 9.30133 46.888 9.056 46.152 9.056C45.416 9.056 44.808 9.30133 44.328 9.792C43.8587 10.2827 43.624 10.928 43.624 11.728C43.624 12.528 43.8587 13.1733 44.328 13.664C44.808 14.1547 45.416 14.4 46.152 14.4ZM60.3901 7.456L56.7261 16H54.6621L50.9981 7.456H53.0781L55.7341 13.792L58.4701 7.456H60.3901Z" fill="white"/>
<path d="M64.84 16.08C64.1573 16.08 63.5013 15.984 62.872 15.792C62.2533 15.5893 61.768 15.3387 61.416 15.04L61.928 14.144C62.28 14.4213 62.7227 14.6507 63.256 14.832C63.7893 15.0027 64.344 15.088 64.92 15.088C65.688 15.088 66.2533 14.9707 66.616 14.736C66.9893 14.4907 67.176 14.1493 67.176 13.712C67.176 13.4027 67.0747 13.1627 66.872 12.992C66.6693 12.8107 66.4133 12.6773 66.104 12.592C65.7947 12.496 65.384 12.4053 64.872 12.32C64.1893 12.192 63.64 12.064 63.224 11.936C62.808 11.7973 62.4507 11.568 62.152 11.248C61.864 10.928 61.72 10.4853 61.72 9.92C61.72 9.216 62.0133 8.64 62.6 8.192C63.1867 7.744 64.0027 7.52 65.048 7.52C65.592 7.52 66.136 7.59467 66.68 7.744C67.224 7.88267 67.672 8.06933 68.024 8.304L67.528 9.216C66.8347 8.736 66.008 8.496 65.048 8.496C64.3227 8.496 63.7733 8.624 63.4 8.88C63.0373 9.136 62.856 9.472 62.856 9.888C62.856 10.208 62.9573 10.464 63.16 10.656C63.3733 10.848 63.6347 10.992 63.944 11.088C64.2533 11.1733 64.68 11.264 65.224 11.36C65.896 11.488 66.4347 11.616 66.84 11.744C67.2453 11.872 67.592 12.0907 67.88 12.4C68.168 12.7093 68.312 13.136 68.312 13.68C68.312 14.416 68.0027 15.0027 67.384 15.44C66.776 15.8667 65.928 16.08 64.84 16.08ZM74.8441 15.488C74.6308 15.68 74.3641 15.8293 74.0441 15.936C73.7348 16.032 73.4095 16.08 73.0681 16.08C72.2788 16.08 71.6708 15.8667 71.2441 15.44C70.8175 15.0133 70.6041 14.4107 70.6041 13.632V8.544H69.1001V7.584H70.6041V5.744H71.7401V7.584H74.3001V8.544H71.7401V13.568C71.7401 14.0693 71.8628 14.4533 72.1081 14.72C72.3641 14.976 72.7268 15.104 73.1961 15.104C73.4308 15.104 73.6548 15.0667 73.8681 14.992C74.0921 14.9173 74.2841 14.8107 74.4441 14.672L74.8441 15.488ZM84.4961 7.584V16H83.4081V14.464C83.1095 14.976 82.6988 15.376 82.1761 15.664C81.6535 15.9413 81.0561 16.08 80.3841 16.08C79.2855 16.08 78.4161 15.776 77.7761 15.168C77.1468 14.5493 76.8321 13.648 76.8321 12.464V7.584H77.9681V12.352C77.9681 13.2373 78.1868 13.9093 78.6241 14.368C79.0615 14.8267 79.6855 15.056 80.4961 15.056C81.3815 15.056 82.0801 14.7893 82.5921 14.256C83.1041 13.712 83.3601 12.96 83.3601 12V7.584H84.4961ZM95.3578 4.128V16H94.2698V14.336C93.9284 14.9013 93.4751 15.3333 92.9098 15.632C92.3551 15.9307 91.7258 16.08 91.0218 16.08C90.2324 16.08 89.5178 15.8987 88.8778 15.536C88.2378 15.1733 87.7364 14.6667 87.3738 14.016C87.0111 13.3653 86.8298 12.624 86.8298 11.792C86.8298 10.96 87.0111 10.2187 87.3738 9.568C87.7364 8.91733 88.2378 8.416 88.8778 8.064C89.5178 7.70133 90.2324 7.52 91.0218 7.52C91.7044 7.52 92.3178 7.664 92.8618 7.952C93.4164 8.22933 93.8698 8.64 94.2218 9.184V4.128H95.3578ZM91.1178 15.072C91.7044 15.072 92.2324 14.9387 92.7018 14.672C93.1818 14.3947 93.5551 14.0053 93.8218 13.504C94.0991 13.0027 94.2378 12.432 94.2378 11.792C94.2378 11.152 94.0991 10.5813 93.8218 10.08C93.5551 9.57867 93.1818 9.19467 92.7018 8.928C92.2324 8.65067 91.7044 8.512 91.1178 8.512C90.5204 8.512 89.9818 8.65067 89.5018 8.928C89.0324 9.19467 88.6591 9.57867 88.3818 10.08C88.1151 10.5813 87.9818 11.152 87.9818 11.792C87.9818 12.432 88.1151 13.0027 88.3818 13.504C88.6591 14.0053 89.0324 14.3947 89.5018 14.672C89.9818 14.9387 90.5204 15.072 91.1178 15.072ZM98.5215 7.584H99.6575V16H98.5215V7.584ZM99.0975 5.744C98.8628 5.744 98.6655 5.664 98.5055 5.504C98.3455 5.344 98.2655 5.152 98.2655 4.928C98.2655 4.71467 98.3455 4.528 98.5055 4.368C98.6655 4.208 98.8628 4.128 99.0975 4.128C99.3322 4.128 99.5295 4.208 99.6895 4.368C99.8495 4.51733 99.9295 4.69867 99.9295 4.912C99.9295 5.14667 99.8495 5.344 99.6895 5.504C99.5295 5.664 99.3322 5.744 99.0975 5.744ZM106.258 16.08C105.448 16.08 104.717 15.8987 104.066 15.536C103.416 15.1627 102.904 14.6507 102.53 14C102.157 13.3493 101.97 12.6133 101.97 11.792C101.97 10.9707 102.157 10.2347 102.53 9.584C102.904 8.93333 103.416 8.42667 104.066 8.064C104.717 7.70133 105.448 7.52 106.258 7.52C107.069 7.52 107.8 7.70133 108.45 8.064C109.101 8.42667 109.608 8.93333 109.97 9.584C110.344 10.2347 110.53 10.9707 110.53 11.792C110.53 12.6133 110.344 13.3493 109.97 14C109.608 14.6507 109.101 15.1627 108.45 15.536C107.8 15.8987 107.069 16.08 106.258 16.08ZM106.258 15.072C106.856 15.072 107.389 14.9387 107.858 14.672C108.338 14.3947 108.712 14.0053 108.978 13.504C109.245 13.0027 109.378 12.432 109.378 11.792C109.378 11.152 109.245 10.5813 108.978 10.08C108.712 9.57867 108.338 9.19467 107.858 8.928C107.389 8.65067 106.856 8.512 106.258 8.512C105.661 8.512 105.122 8.65067 104.642 8.928C104.173 9.19467 103.8 9.57867 103.522 10.08C103.256 10.5813 103.122 11.152 103.122 11.792C103.122 12.432 103.256 13.0027 103.522 13.504C103.8 14.0053 104.173 14.3947 104.642 14.672C105.122 14.9387 105.661 15.072 106.258 15.072ZM112.727 16.08C112.493 16.08 112.29 15.9947 112.119 15.824C111.959 15.6533 111.879 15.4453 111.879 15.2C111.879 14.9547 111.959 14.752 112.119 14.592C112.29 14.4213 112.493 14.336 112.727 14.336C112.962 14.336 113.165 14.4213 113.335 14.592C113.506 14.752 113.591 14.9547 113.591 15.2C113.591 15.4453 113.506 15.6533 113.335 15.824C113.165 15.9947 112.962 16.08 112.727 16.08Z" fill="white"/>
</svg>
